<mxfile host="Electron" modified="2024-02-23T18:36:42.648Z" agent="Mozilla/5.0 (X11; Linux x86_64) AppleWebKit/537.36 (KHTML, like Gecko) draw.io/23.1.5 Chrome/120.0.6099.109 Electron/28.1.0 Safari/537.36" etag="l5uZPY396cHUnmGlYxij" version="23.1.5" type="device">
  <diagram name="Page-1" id="XTCA5G6cbBC70T64MSRc">
    <mxGraphModel dx="1284" dy="1763" grid="1" gridSize="10" guides="1" tooltips="1" connect="1" arrows="1" fold="1" page="1" pageScale="1" pageWidth="850" pageHeight="1100" math="0" shadow="0">
      <root>
        <mxCell id="0" />
        <mxCell id="1" parent="0" />
        <mxCell id="0JstrHkOvT4zA7hhjL8A-45" value="" style="rounded=1;whiteSpace=wrap;html=1;" parent="1" vertex="1">
          <mxGeometry x="20" y="510" width="220" height="140" as="geometry" />
        </mxCell>
        <mxCell id="0JstrHkOvT4zA7hhjL8A-35" value="" style="rounded=1;whiteSpace=wrap;html=1;" parent="1" vertex="1">
          <mxGeometry x="492" y="-50" width="358" height="390" as="geometry" />
        </mxCell>
        <mxCell id="0JstrHkOvT4zA7hhjL8A-34" value="" style="rounded=1;whiteSpace=wrap;html=1;" parent="1" vertex="1">
          <mxGeometry x="20" y="-20" width="358" height="390" as="geometry" />
        </mxCell>
        <mxCell id="0JstrHkOvT4zA7hhjL8A-3" value="SD-WAN1" style="rounded=0;whiteSpace=wrap;html=1;" parent="1" vertex="1">
          <mxGeometry x="280" y="250" width="60" height="20" as="geometry" />
        </mxCell>
        <mxCell id="0JstrHkOvT4zA7hhjL8A-4" value="SD-WAN2" style="rounded=0;whiteSpace=wrap;html=1;" parent="1" vertex="1">
          <mxGeometry x="540" y="250" width="60" height="20" as="geometry" />
        </mxCell>
        <mxCell id="0JstrHkOvT4zA7hhjL8A-5" value="Velo Cloud GW" style="rounded=0;whiteSpace=wrap;html=1;" parent="1" vertex="1">
          <mxGeometry x="390" y="380" width="70" height="30" as="geometry" />
        </mxCell>
        <mxCell id="0JstrHkOvT4zA7hhjL8A-7" style="edgeStyle=orthogonalEdgeStyle;rounded=0;orthogonalLoop=1;jettySize=auto;html=1;entryX=0.5;entryY=1;entryDx=0;entryDy=0;" parent="1" source="0JstrHkOvT4zA7hhjL8A-6" target="0JstrHkOvT4zA7hhjL8A-5" edge="1">
          <mxGeometry relative="1" as="geometry" />
        </mxCell>
        <mxCell id="0JstrHkOvT4zA7hhjL8A-6" value="Cloud FW" style="rounded=0;whiteSpace=wrap;html=1;" parent="1" vertex="1">
          <mxGeometry x="310" y="470" width="230" height="30" as="geometry" />
        </mxCell>
        <mxCell id="0JstrHkOvT4zA7hhjL8A-8" style="edgeStyle=orthogonalEdgeStyle;rounded=0;orthogonalLoop=1;jettySize=auto;html=1;" parent="1" edge="1">
          <mxGeometry relative="1" as="geometry">
            <mxPoint x="430" y="410" as="sourcePoint" />
            <mxPoint x="430" y="470" as="targetPoint" />
          </mxGeometry>
        </mxCell>
        <mxCell id="0JstrHkOvT4zA7hhjL8A-9" value="DC&lt;br&gt;802.1X Auth" style="rounded=0;whiteSpace=wrap;html=1;" parent="1" vertex="1">
          <mxGeometry x="120" y="330" width="80" height="30" as="geometry" />
        </mxCell>
        <mxCell id="0JstrHkOvT4zA7hhjL8A-11" value="" style="endArrow=none;html=1;rounded=0;entryX=0.635;entryY=-0.125;entryDx=0;entryDy=0;exitX=0;exitY=0.5;exitDx=0;exitDy=0;entryPerimeter=0;" parent="1" source="0JstrHkOvT4zA7hhjL8A-3" target="0JstrHkOvT4zA7hhjL8A-9" edge="1">
          <mxGeometry width="50" height="50" relative="1" as="geometry">
            <mxPoint x="470" y="300" as="sourcePoint" />
            <mxPoint x="520" y="250" as="targetPoint" />
          </mxGeometry>
        </mxCell>
        <mxCell id="0JstrHkOvT4zA7hhjL8A-12" value="VLAN 300&lt;br&gt;192.168.41.83/24" style="edgeLabel;html=1;align=center;verticalAlign=middle;resizable=0;points=[];" parent="0JstrHkOvT4zA7hhjL8A-11" vertex="1" connectable="0">
          <mxGeometry x="-0.3111" y="1" relative="1" as="geometry">
            <mxPoint as="offset" />
          </mxGeometry>
        </mxCell>
        <mxCell id="0JstrHkOvT4zA7hhjL8A-13" value="DG1&lt;br&gt;72.209.90.1" style="rounded=0;whiteSpace=wrap;html=1;" parent="1" vertex="1">
          <mxGeometry x="275" y="150" width="70" height="30" as="geometry" />
        </mxCell>
        <mxCell id="0JstrHkOvT4zA7hhjL8A-14" value="DG2&lt;br&gt;72.209.90.5" style="rounded=0;whiteSpace=wrap;html=1;" parent="1" vertex="1">
          <mxGeometry x="535" y="150" width="70" height="30" as="geometry" />
        </mxCell>
        <mxCell id="0JstrHkOvT4zA7hhjL8A-15" value="AP1" style="rounded=0;whiteSpace=wrap;html=1;" parent="1" vertex="1">
          <mxGeometry x="280" y="50" width="60" height="20" as="geometry" />
        </mxCell>
        <mxCell id="0JstrHkOvT4zA7hhjL8A-16" value="AP2" style="rounded=0;whiteSpace=wrap;html=1;" parent="1" vertex="1">
          <mxGeometry x="540" y="50" width="60" height="20" as="geometry" />
        </mxCell>
        <mxCell id="0JstrHkOvT4zA7hhjL8A-18" value="" style="image;points=[];aspect=fixed;html=1;align=center;shadow=0;dashed=0;image=img/lib/allied_telesis/computer_and_terminals/Laptop.svg;" parent="1" vertex="1">
          <mxGeometry x="750" y="7.400000000000006" width="42" height="42.599999999999994" as="geometry" />
        </mxCell>
        <mxCell id="0JstrHkOvT4zA7hhjL8A-19" value="" style="image;points=[];aspect=fixed;html=1;align=center;shadow=0;dashed=0;image=img/lib/allied_telesis/computer_and_terminals/Laptop.svg;" parent="1" vertex="1">
          <mxGeometry x="750" y="90" width="42" height="42.599999999999994" as="geometry" />
        </mxCell>
        <mxCell id="0JstrHkOvT4zA7hhjL8A-20" value="" style="image;points=[];aspect=fixed;html=1;align=center;shadow=0;dashed=0;image=img/lib/allied_telesis/computer_and_terminals/Laptop.svg;" parent="1" vertex="1">
          <mxGeometry x="78" y="90" width="42" height="42.599999999999994" as="geometry" />
        </mxCell>
        <mxCell id="0JstrHkOvT4zA7hhjL8A-21" value="" style="image;points=[];aspect=fixed;html=1;align=center;shadow=0;dashed=0;image=img/lib/allied_telesis/computer_and_terminals/Laptop.svg;" parent="1" vertex="1">
          <mxGeometry x="120" y="7.400000000000006" width="42" height="42.599999999999994" as="geometry" />
        </mxCell>
        <mxCell id="0JstrHkOvT4zA7hhjL8A-22" value="" style="endArrow=none;dashed=1;html=1;dashPattern=1 3;strokeWidth=2;rounded=0;exitX=1;exitY=0.5;exitDx=0;exitDy=0;" parent="1" source="0JstrHkOvT4zA7hhjL8A-16" target="0JstrHkOvT4zA7hhjL8A-18" edge="1">
          <mxGeometry width="50" height="50" relative="1" as="geometry">
            <mxPoint x="610" y="60" as="sourcePoint" />
            <mxPoint x="750" y="40" as="targetPoint" />
          </mxGeometry>
        </mxCell>
        <mxCell id="0JstrHkOvT4zA7hhjL8A-24" value="Guest VLAN 200" style="edgeLabel;html=1;align=center;verticalAlign=middle;resizable=0;points=[];" parent="0JstrHkOvT4zA7hhjL8A-22" vertex="1" connectable="0">
          <mxGeometry x="-0.0074" y="-3" relative="1" as="geometry">
            <mxPoint as="offset" />
          </mxGeometry>
        </mxCell>
        <mxCell id="0JstrHkOvT4zA7hhjL8A-23" value="" style="endArrow=none;dashed=1;html=1;dashPattern=1 3;strokeWidth=2;rounded=0;exitX=1;exitY=1;exitDx=0;exitDy=0;" parent="1" source="0JstrHkOvT4zA7hhjL8A-16" target="0JstrHkOvT4zA7hhjL8A-19" edge="1">
          <mxGeometry width="50" height="50" relative="1" as="geometry">
            <mxPoint x="600" y="150" as="sourcePoint" />
            <mxPoint x="750" y="123" as="targetPoint" />
          </mxGeometry>
        </mxCell>
        <mxCell id="0JstrHkOvT4zA7hhjL8A-25" value="Private VLAN 300" style="edgeLabel;html=1;align=center;verticalAlign=middle;resizable=0;points=[];" parent="0JstrHkOvT4zA7hhjL8A-23" vertex="1" connectable="0">
          <mxGeometry x="0.1165" y="-1" relative="1" as="geometry">
            <mxPoint as="offset" />
          </mxGeometry>
        </mxCell>
        <mxCell id="0JstrHkOvT4zA7hhjL8A-27" value="" style="endArrow=none;dashed=1;html=1;dashPattern=1 3;strokeWidth=2;rounded=0;entryX=0;entryY=0.75;entryDx=0;entryDy=0;" parent="1" source="0JstrHkOvT4zA7hhjL8A-21" target="0JstrHkOvT4zA7hhjL8A-15" edge="1">
          <mxGeometry width="50" height="50" relative="1" as="geometry">
            <mxPoint x="182" y="34.4" as="sourcePoint" />
            <mxPoint x="332" y="7.399999999999999" as="targetPoint" />
          </mxGeometry>
        </mxCell>
        <mxCell id="0JstrHkOvT4zA7hhjL8A-28" value="Guest VLAN 200" style="edgeLabel;html=1;align=center;verticalAlign=middle;resizable=0;points=[];" parent="0JstrHkOvT4zA7hhjL8A-27" vertex="1" connectable="0">
          <mxGeometry x="-0.0074" y="-3" relative="1" as="geometry">
            <mxPoint as="offset" />
          </mxGeometry>
        </mxCell>
        <mxCell id="0JstrHkOvT4zA7hhjL8A-31" value="" style="endArrow=none;dashed=1;html=1;dashPattern=1 3;strokeWidth=2;rounded=0;exitX=0;exitY=0.75;exitDx=0;exitDy=0;" parent="1" source="0JstrHkOvT4zA7hhjL8A-15" target="0JstrHkOvT4zA7hhjL8A-20" edge="1">
          <mxGeometry width="50" height="50" relative="1" as="geometry">
            <mxPoint x="270" y="70" as="sourcePoint" />
            <mxPoint x="400" y="129.3" as="targetPoint" />
          </mxGeometry>
        </mxCell>
        <mxCell id="0JstrHkOvT4zA7hhjL8A-32" value="Private VLAN 300" style="edgeLabel;html=1;align=center;verticalAlign=middle;resizable=0;points=[];" parent="0JstrHkOvT4zA7hhjL8A-31" vertex="1" connectable="0">
          <mxGeometry x="0.1165" y="-1" relative="1" as="geometry">
            <mxPoint as="offset" />
          </mxGeometry>
        </mxCell>
        <mxCell id="0JstrHkOvT4zA7hhjL8A-36" value="Site 2" style="rounded=0;whiteSpace=wrap;html=1;" parent="1" vertex="1">
          <mxGeometry x="620" y="-50" width="120" height="30" as="geometry" />
        </mxCell>
        <mxCell id="0JstrHkOvT4zA7hhjL8A-37" value="Site 1" style="rounded=0;whiteSpace=wrap;html=1;" parent="1" vertex="1">
          <mxGeometry x="180" y="-20" width="120" height="30" as="geometry" />
        </mxCell>
        <mxCell id="0JstrHkOvT4zA7hhjL8A-38" value="" style="endArrow=none;html=1;rounded=0;entryX=0.5;entryY=1;entryDx=0;entryDy=0;exitX=0.5;exitY=0;exitDx=0;exitDy=0;" parent="1" source="0JstrHkOvT4zA7hhjL8A-14" target="0JstrHkOvT4zA7hhjL8A-16" edge="1">
          <mxGeometry width="50" height="50" relative="1" as="geometry">
            <mxPoint x="430" y="300" as="sourcePoint" />
            <mxPoint x="480" y="250" as="targetPoint" />
          </mxGeometry>
        </mxCell>
        <mxCell id="0JstrHkOvT4zA7hhjL8A-39" value="" style="endArrow=none;html=1;rounded=0;entryX=0.5;entryY=1;entryDx=0;entryDy=0;exitX=0.5;exitY=0;exitDx=0;exitDy=0;" parent="1" source="0JstrHkOvT4zA7hhjL8A-3" target="0JstrHkOvT4zA7hhjL8A-13" edge="1">
          <mxGeometry width="50" height="50" relative="1" as="geometry">
            <mxPoint x="430" y="300" as="sourcePoint" />
            <mxPoint x="480" y="250" as="targetPoint" />
          </mxGeometry>
        </mxCell>
        <mxCell id="0JstrHkOvT4zA7hhjL8A-40" value="" style="endArrow=none;html=1;rounded=0;entryX=0.5;entryY=1;entryDx=0;entryDy=0;exitX=0.5;exitY=0;exitDx=0;exitDy=0;" parent="1" source="0JstrHkOvT4zA7hhjL8A-50" target="0JstrHkOvT4zA7hhjL8A-15" edge="1">
          <mxGeometry width="50" height="50" relative="1" as="geometry">
            <mxPoint x="430" y="300" as="sourcePoint" />
            <mxPoint x="480" y="250" as="targetPoint" />
          </mxGeometry>
        </mxCell>
        <mxCell id="0JstrHkOvT4zA7hhjL8A-41" value="" style="endArrow=none;html=1;rounded=0;entryX=0.5;entryY=1;entryDx=0;entryDy=0;exitX=0.5;exitY=0;exitDx=0;exitDy=0;" parent="1" source="0JstrHkOvT4zA7hhjL8A-4" target="0JstrHkOvT4zA7hhjL8A-14" edge="1">
          <mxGeometry width="50" height="50" relative="1" as="geometry">
            <mxPoint x="430" y="300" as="sourcePoint" />
            <mxPoint x="480" y="250" as="targetPoint" />
          </mxGeometry>
        </mxCell>
        <mxCell id="0JstrHkOvT4zA7hhjL8A-42" value="" style="shape=link;html=1;rounded=0;exitX=1;exitY=1;exitDx=0;exitDy=0;entryX=0;entryY=0;entryDx=0;entryDy=0;" parent="1" source="0JstrHkOvT4zA7hhjL8A-3" target="0JstrHkOvT4zA7hhjL8A-5" edge="1">
          <mxGeometry width="100" relative="1" as="geometry">
            <mxPoint x="410" y="270" as="sourcePoint" />
            <mxPoint x="510" y="270" as="targetPoint" />
          </mxGeometry>
        </mxCell>
        <mxCell id="0JstrHkOvT4zA7hhjL8A-43" value="" style="shape=link;html=1;rounded=0;exitX=0;exitY=1;exitDx=0;exitDy=0;entryX=1;entryY=0;entryDx=0;entryDy=0;" parent="1" source="0JstrHkOvT4zA7hhjL8A-4" target="0JstrHkOvT4zA7hhjL8A-5" edge="1">
          <mxGeometry width="100" relative="1" as="geometry">
            <mxPoint x="410" y="270" as="sourcePoint" />
            <mxPoint x="510" y="270" as="targetPoint" />
          </mxGeometry>
        </mxCell>
        <mxCell id="0JstrHkOvT4zA7hhjL8A-44" value="DC&lt;br&gt;802.1X Auth" style="rounded=0;whiteSpace=wrap;html=1;" parent="1" vertex="1">
          <mxGeometry x="120" y="590" width="80" height="30" as="geometry" />
        </mxCell>
        <mxCell id="0JstrHkOvT4zA7hhjL8A-46" value="RapidScale Cloud" style="rounded=0;whiteSpace=wrap;html=1;" parent="1" vertex="1">
          <mxGeometry x="70" y="510" width="120" height="30" as="geometry" />
        </mxCell>
        <mxCell id="0JstrHkOvT4zA7hhjL8A-47" value="" style="endArrow=none;html=1;rounded=0;exitX=1;exitY=0.5;exitDx=0;exitDy=0;entryX=0.109;entryY=0.95;entryDx=0;entryDy=0;entryPerimeter=0;" parent="1" source="0JstrHkOvT4zA7hhjL8A-44" target="0JstrHkOvT4zA7hhjL8A-6" edge="1">
          <mxGeometry width="50" height="50" relative="1" as="geometry">
            <mxPoint x="320" y="390" as="sourcePoint" />
            <mxPoint x="370" y="340" as="targetPoint" />
          </mxGeometry>
        </mxCell>
        <mxCell id="0JstrHkOvT4zA7hhjL8A-48" value="10.100.0.11" style="edgeLabel;html=1;align=center;verticalAlign=middle;resizable=0;points=[];" parent="0JstrHkOvT4zA7hhjL8A-47" vertex="1" connectable="0">
          <mxGeometry x="0.1846" y="-2" relative="1" as="geometry">
            <mxPoint as="offset" />
          </mxGeometry>
        </mxCell>
        <mxCell id="0JstrHkOvT4zA7hhjL8A-51" value="" style="endArrow=none;html=1;rounded=0;entryX=0.5;entryY=1;entryDx=0;entryDy=0;exitX=0.5;exitY=0;exitDx=0;exitDy=0;" parent="1" source="0JstrHkOvT4zA7hhjL8A-13" target="0JstrHkOvT4zA7hhjL8A-50" edge="1">
          <mxGeometry width="50" height="50" relative="1" as="geometry">
            <mxPoint x="310" y="150" as="sourcePoint" />
            <mxPoint x="310" y="70" as="targetPoint" />
          </mxGeometry>
        </mxCell>
        <mxCell id="0JstrHkOvT4zA7hhjL8A-50" value="" style="sketch=0;points=[[0.015,0.015,0],[0.985,0.015,0],[0.985,0.985,0],[0.015,0.985,0],[0.25,0,0],[0.5,0,0],[0.75,0,0],[1,0.25,0],[1,0.5,0],[1,0.75,0],[0.75,1,0],[0.5,1,0],[0.25,1,0],[0,0.75,0],[0,0.5,0],[0,0.25,0]];verticalLabelPosition=bottom;html=1;verticalAlign=top;aspect=fixed;align=center;pointerEvents=1;shape=mxgraph.cisco19.rect;prIcon=l2_switch;fillColor=#FAFAFA;strokeColor=#005073;" parent="1" vertex="1">
          <mxGeometry x="295" y="96.3" width="30" height="30" as="geometry" />
        </mxCell>
        <mxCell id="0JstrHkOvT4zA7hhjL8A-52" value="" style="sketch=0;points=[[0.015,0.015,0],[0.985,0.015,0],[0.985,0.985,0],[0.015,0.985,0],[0.25,0,0],[0.5,0,0],[0.75,0,0],[1,0.25,0],[1,0.5,0],[1,0.75,0],[0.75,1,0],[0.5,1,0],[0.25,1,0],[0,0.75,0],[0,0.5,0],[0,0.25,0]];verticalLabelPosition=bottom;html=1;verticalAlign=top;aspect=fixed;align=center;pointerEvents=1;shape=mxgraph.cisco19.rect;prIcon=l2_switch;fillColor=#FAFAFA;strokeColor=#005073;" parent="1" vertex="1">
          <mxGeometry x="555" y="96.3" width="30" height="30" as="geometry" />
        </mxCell>
      </root>
    </mxGraphModel>
  </diagram>
</mxfile>
